<?xml version="1.0" encoding="UTF-8"?>
<svg id="Layer_2" data-name="Layer 2" xmlns="http://www.w3.org/2000/svg" viewBox="0 0 293.54 45.35">
  <defs>
    <style>
      .cls-1 {
        fill: #22bbad;
      }

      .cls-2 {
        fill: #262262;
      }
    </style>
  </defs>
  <g id="Layer_1-2" data-name="Layer 1">
    <g>
      <path class="cls-2" d="M42.3,21.94l-2.65-4.6c-.57-.99-1.99-.99-2.56,0l-13.61,23.57c-1.14,1.97-3.99,1.97-5.13,0L8.67,24.16c-.53-.92-.53-2.05,0-2.96L19.62,2.22C20.19,1.23,19.48,0,18.34,0h-3.98c-1.35,0-2.6,.72-3.27,1.89L.79,19.71c-1.06,1.83-1.06,4.09,0,5.92l10.29,17.83c.68,1.17,1.92,1.89,3.27,1.89h13.09c1.35,0,2.6-.72,3.27-1.89l11.57-20.05c.26-.46,.26-1.02,0-1.48Z"/>
      <path class="cls-1" d="M17.63,24.57l1.99,3.45c.57,.99,1.99,.99,2.56,0L35.8,4.44c1.14-1.97,3.99-1.97,5.13,0l9.67,16.75c.53,.92,.53,2.05,0,2.96l-10.95,18.97c-.57,.99,.14,2.22,1.28,2.22h3.98c1.35,0,2.6-.72,3.27-1.89l10.29-17.83c1.06-1.83,1.06-4.09,0-5.92L48.18,1.89C47.5,.72,46.26,0,44.91,0h-13.09C30.46,0,29.22,.72,28.54,1.89l-10.91,18.9c-.68,1.17-.68,2.61,0,3.78Z"/>
    </g>
    <g>
      <path class="cls-2" d="M70.42,14.06V31.3c0,2.54,2.06,4.61,4.61,4.61h10.63c2.54,0,4.61-2.06,4.61-4.61v-4.16c0-.64-.52-1.15-1.15-1.15h-4.31c-.64,0-1.15,.52-1.15,1.15v1c0,.64-.52,1.15-1.15,1.15h-4.31c-.64,0-1.15-.52-1.15-1.15v-10.92c0-.64,.52-1.15,1.15-1.15h4.31c.64,0,1.15,.52,1.15,1.15v1c0,.64,.52,1.15,1.15,1.15h4.31c.64,0,1.15-.52,1.15-1.15v-4.16c0-2.54-2.06-4.61-4.61-4.61h-10.63c-2.54,0-4.61,2.06-4.61,4.61Z"/>
      <path class="cls-2" d="M120.03,14.06v7.32c0,2.54,2.06,4.61,4.61,4.61h7.47c.64,0,1.15,.52,1.15,1.15v1c0,.64-.52,1.15-1.15,1.15h-10.92c-.64,0-1.15,.52-1.15,1.15v4.31c0,.64,.52,1.15,1.15,1.15h14.08c2.54,0,4.61-2.06,4.61-4.61v-7.32c0-2.54-2.06-4.61-4.61-4.61h-7.47c-.64,0-1.15-.52-1.15-1.15v-1c0-.64,.52-1.15,1.15-1.15h10.92c.64,0,1.15-.52,1.15-1.15v-4.31c0-.64-.52-1.15-1.15-1.15h-14.08c-2.54,0-4.61,2.06-4.61,4.61Z"/>
      <rect class="cls-2" x="143.18" y="19.37" width="9.92" height="6.61" rx="1.15" ry="1.15"/>
      <path class="cls-2" d="M156.4,10.6v24.15c0,.64,.52,1.15,1.15,1.15h17.54c.64,0,1.15-.52,1.15-1.15v-4.31c0-.64-.52-1.15-1.15-1.15h-10.92c-.64,0-1.15-.52-1.15-1.15v-1c0-.64,.52-1.15,1.15-1.15h7.62c.64,0,1.15-.52,1.15-1.15v-4.31c0-.64-.52-1.15-1.15-1.15h-7.62c-.64,0-1.15-.52-1.15-1.15v-1c0-.64,.52-1.15,1.15-1.15h10.92c.64,0,1.15-.52,1.15-1.15v-4.31c0-.64-.52-1.15-1.15-1.15h-17.54c-.64,0-1.15,.52-1.15,1.15Z"/>
      <path class="cls-2" d="M199.39,14.91v-4.31c0-.64-.52-1.15-1.15-1.15h-14.08c-2.54,0-4.61,2.06-4.61,4.61v7.32c0,2.54,2.06,4.61,4.61,4.61h7.47c.64,0,1.15,.52,1.15,1.15v1c0,.64-.52,1.15-1.15,1.15h-10.92c-.64,0-1.15,.52-1.15,1.15v4.31c0,.64,.52,1.15,1.15,1.15h14.08c2.54,0,4.61-2.06,4.61-4.61v-7.32c0-2.54-2.06-4.61-4.61-4.61h-7.47c-.64,0-1.15-.52-1.15-1.15v-1c0-.64,.52-1.15,1.15-1.15h10.92c.64,0,1.15-.52,1.15-1.15Z"/>
      <path class="cls-2" d="M93.57,10.6v4.31c0,.64,.52,1.15,1.15,1.15h1c.64,0,1.15,.52,1.15,1.15v10.92c0,.64-.52,1.15-1.15,1.15h-1c-.64,0-1.15,.52-1.15,1.15v4.31c0,.64,.52,1.15,1.15,1.15h17.39c2.54,0,4.61-2.06,4.61-4.61V14.06c0-2.54-2.06-4.61-4.61-4.61h-17.39c-.64,0-1.15,.52-1.15,1.15Zm16.53,12.08v5.46c0,.64-.52,1.15-1.15,1.15h-4.31c-.64,0-1.15-.52-1.15-1.15v-10.92c0-.64,.52-1.15,1.15-1.15h4.31c.64,0,1.15,.52,1.15,1.15v5.46Z"/>
    </g>
    <g>
      <path class="cls-2" d="M210.11,13.36c0-1.61,1.23-2.78,2.88-2.78,.84,0,1.57,.29,2.07,.85l-.5,.49c-.42-.44-.93-.64-1.53-.64-1.23,0-2.14,.89-2.14,2.09s.91,2.09,2.14,2.09c.6,0,1.11-.21,1.53-.65l.5,.49c-.5,.56-1.23,.85-2.07,.85-1.65,0-2.87-1.17-2.87-2.78Z"/>
      <path class="cls-2" d="M220.03,15.4v.68h-3.95v-5.44h3.84v.68h-3.06v1.67h2.73v.66h-2.73v1.76h3.17Z"/>
      <path class="cls-2" d="M224.69,16.08l-1.17-1.67c-.11,0-.23,.02-.34,.02h-1.34v1.65h-.78v-5.44h2.12c1.41,0,2.27,.71,2.27,1.89,0,.84-.43,1.44-1.2,1.72l1.29,1.83h-.85Zm-.02-3.54c0-.78-.52-1.22-1.51-1.22h-1.32v2.45h1.32c.99,0,1.51-.45,1.51-1.23Z"/>
      <path class="cls-2" d="M227.78,11.32h-1.86v-.68h4.5v.68h-1.86v4.76h-.77v-4.76Z"/>
      <path class="cls-2" d="M231.49,10.64h.78v5.44h-.78v-5.44Z"/>
      <path class="cls-2" d="M234.28,11.32v1.89h2.73v.67h-2.73v2.2h-.78v-5.44h3.84v.68h-3.06Z"/>
      <path class="cls-2" d="M238.51,10.64h.78v5.44h-.78v-5.44Z"/>
      <path class="cls-2" d="M244.32,15.4v.68h-3.95v-5.44h3.84v.68h-3.06v1.67h2.73v.66h-2.73v1.76h3.17Z"/>
      <path class="cls-2" d="M245.5,10.64h2.29c1.75,0,2.94,1.1,2.94,2.72s-1.19,2.72-2.94,2.72h-2.29v-5.44Zm2.24,4.76c1.34,0,2.21-.82,2.21-2.04s-.86-2.04-2.21-2.04h-1.47v4.08h1.47Z"/>
      <path class="cls-2" d="M210.55,19.96h2.29c1.75,0,2.94,1.1,2.94,2.72s-1.19,2.72-2.94,2.72h-2.29v-5.44Zm2.24,4.76c1.34,0,2.21-.82,2.21-2.04s-.86-2.04-2.21-2.04h-1.47v4.08h1.47Z"/>
      <path class="cls-2" d="M220.12,24.03h-2.89l-.6,1.36h-.8l2.46-5.44h.77l2.47,5.44h-.82l-.6-1.36Zm-.27-.62l-1.17-2.66-1.17,2.66h2.34Z"/>
      <path class="cls-2" d="M222.76,20.63h-1.86v-.68h4.5v.68h-1.86v4.76h-.77v-4.76Z"/>
      <path class="cls-2" d="M229.04,24.03h-2.89l-.6,1.36h-.8l2.46-5.44h.77l2.47,5.44h-.82l-.6-1.36Zm-.27-.62l-1.17-2.66-1.17,2.66h2.34Z"/>
      <path class="cls-2" d="M233,24.77l.29-.61c.4,.36,1.09,.63,1.79,.63,.94,0,1.34-.37,1.34-.84,0-1.33-3.29-.49-3.29-2.51,0-.84,.65-1.55,2.08-1.55,.64,0,1.3,.17,1.75,.48l-.26,.62c-.47-.3-1.01-.44-1.49-.44-.92,0-1.32,.39-1.32,.86,0,1.33,3.29,.5,3.29,2.49,0,.83-.67,1.55-2.1,1.55-.83,0-1.65-.28-2.08-.68Z"/>
      <path class="cls-2" d="M237.95,22.68c0-1.61,1.23-2.78,2.88-2.78,.84,0,1.57,.29,2.07,.85l-.5,.49c-.42-.44-.93-.64-1.53-.64-1.23,0-2.14,.89-2.14,2.09s.91,2.09,2.14,2.09c.6,0,1.11-.21,1.53-.65l.5,.49c-.5,.56-1.23,.85-2.07,.85-1.65,0-2.87-1.17-2.87-2.78Z"/>
      <path class="cls-2" d="M244.08,19.96h.78v5.44h-.78v-5.44Z"/>
      <path class="cls-2" d="M249.89,24.72v.68h-3.95v-5.44h3.84v.68h-3.06v1.67h2.73v.66h-2.73v1.76h3.17Z"/>
      <path class="cls-2" d="M255.59,19.96v5.44h-.64l-3.26-4.05v4.05h-.78v-5.44h.64l3.26,4.05v-4.05h.78Z"/>
      <path class="cls-2" d="M258.37,20.63h-1.86v-.68h4.5v.68h-1.86v4.76h-.77v-4.76Z"/>
      <path class="cls-2" d="M261.93,19.96h.78v5.44h-.78v-5.44Z"/>
      <path class="cls-2" d="M263.6,24.77l.29-.61c.4,.36,1.09,.63,1.79,.63,.94,0,1.34-.37,1.34-.84,0-1.33-3.29-.49-3.29-2.51,0-.84,.65-1.55,2.08-1.55,.64,0,1.3,.17,1.75,.48l-.26,.62c-.47-.3-1.01-.44-1.49-.44-.92,0-1.32,.39-1.32,.86,0,1.33,3.29,.5,3.29,2.49,0,.83-.67,1.55-2.1,1.55-.83,0-1.65-.28-2.08-.68Z"/>
      <path class="cls-2" d="M270.16,20.63h-1.86v-.68h4.5v.68h-1.86v4.76h-.77v-4.76Z"/>
      <path class="cls-2" d="M214.5,34.03v.68h-3.95v-5.44h3.84v.68h-3.06v1.67h2.73v.66h-2.73v1.76h3.17Z"/>
      <path class="cls-2" d="M220.48,29.27l-2.38,5.44h-.77l-2.39-5.44h.84l1.96,4.47,1.97-4.47h.78Z"/>
      <path class="cls-2" d="M223.76,33.35h-2.89l-.6,1.36h-.8l2.46-5.44h.77l2.47,5.44h-.82l-.6-1.36Zm-.27-.62l-1.17-2.66-1.17,2.66h2.34Z"/>
      <path class="cls-2" d="M226.05,29.27h.78v4.76h2.94v.68h-3.72v-5.44Z"/>
      <path class="cls-2" d="M230.45,32.36v-3.09h.78v3.06c0,1.2,.55,1.75,1.53,1.75s1.54-.54,1.54-1.75v-3.06h.75v3.09c0,1.58-.86,2.41-2.3,2.41s-2.3-.83-2.3-2.41Z"/>
      <path class="cls-2" d="M239.75,33.35h-2.89l-.6,1.36h-.8l2.46-5.44h.77l2.47,5.44h-.82l-.6-1.36Zm-.27-.62l-1.17-2.66-1.17,2.66h2.34Z"/>
      <path class="cls-2" d="M242.39,29.95h-1.86v-.68h4.5v.68h-1.86v4.76h-.77v-4.76Z"/>
      <path class="cls-2" d="M246.09,29.27h.78v5.44h-.78v-5.44Z"/>
      <path class="cls-2" d="M247.98,31.99c0-1.59,1.23-2.78,2.9-2.78s2.88,1.18,2.88,2.78-1.23,2.78-2.88,2.78-2.9-1.19-2.9-2.78Zm5,0c0-1.2-.9-2.09-2.1-2.09s-2.12,.89-2.12,2.09,.9,2.09,2.12,2.09,2.1-.89,2.1-2.09Z"/>
      <path class="cls-2" d="M259.38,29.27v5.44h-.64l-3.26-4.05v4.05h-.78v-5.44h.64l3.26,4.05v-4.05h.78Z"/>
      <path class="cls-2" d="M262.76,34.09l.29-.61c.4,.36,1.09,.63,1.79,.63,.94,0,1.34-.37,1.34-.84,0-1.33-3.29-.49-3.29-2.51,0-.84,.65-1.55,2.08-1.55,.64,0,1.3,.17,1.75,.48l-.26,.62c-.47-.3-1.01-.44-1.49-.44-.92,0-1.32,.39-1.32,.86,0,1.33,3.29,.5,3.29,2.49,0,.83-.67,1.55-2.1,1.55-.83,0-1.65-.28-2.08-.68Z"/>
      <path class="cls-2" d="M270.27,32.83v1.88h-.77v-1.89l-2.16-3.54h.83l1.74,2.87,1.75-2.87h.77l-2.16,3.56Z"/>
      <path class="cls-2" d="M272.68,34.09l.29-.61c.4,.36,1.09,.63,1.79,.63,.94,0,1.34-.37,1.34-.84,0-1.33-3.29-.49-3.29-2.51,0-.84,.65-1.55,2.08-1.55,.64,0,1.3,.17,1.75,.48l-.26,.62c-.47-.3-1.01-.44-1.49-.44-.92,0-1.32,.39-1.32,.86,0,1.33,3.29,.5,3.29,2.49,0,.83-.67,1.55-2.1,1.55-.83,0-1.65-.28-2.08-.68Z"/>
      <path class="cls-2" d="M279.23,29.95h-1.86v-.68h4.5v.68h-1.86v4.76h-.77v-4.76Z"/>
      <path class="cls-2" d="M286.73,34.03v.68h-3.95v-5.44h3.84v.68h-3.06v1.67h2.73v.66h-2.73v1.76h3.17Z"/>
      <path class="cls-2" d="M292.79,34.71v-3.96s-1.97,3.3-1.97,3.3h-.36l-1.96-3.28v3.94h-.75v-5.44h.64l2.27,3.82,2.24-3.82h.64v5.44s-.74,0-.74,0Z"/>
    </g>
  </g>
</svg>