<?xml version="1.0" standalone="no"?>
<!DOCTYPE svg PUBLIC "-//W3C//DTD SVG 20010904//EN"
 "http://www.w3.org/TR/2001/REC-SVG-20010904/DTD/svg10.dtd">
<svg version="1.0" xmlns="http://www.w3.org/2000/svg"
 width="636.000000pt" height="380.000000pt" viewBox="0 0 636.000000 380.000000"
 preserveAspectRatio="xMidYMid meet">

<g transform="translate(0.000000,380.000000) scale(0.100000,-0.100000)"
fill="#000000" stroke="none">
<path d="M5250 3700 c-173 -24 -274 -46 -419 -91 -145 -45 -165 -54 -376 -161
-245 -124 -312 -165 -582 -357 -157 -112 -220 -165 -333 -277 -52 -52 -101
-100 -109 -107 -41 -36 -231 -229 -231 -235 0 -4 -26 -35 -57 -68 -66 -70
-123 -135 -217 -249 -36 -44 -87 -105 -113 -136 -27 -31 -53 -65 -59 -75 -7
-10 -14 -16 -18 -13 -7 7 102 229 113 229 4 0 13 16 20 36 7 19 25 50 40 67
15 18 33 42 41 53 8 12 41 56 73 98 31 42 57 78 57 82 0 3 14 25 31 49 49 68
28 103 -50 83 -40 -10 -68 -39 -56 -58 3 -5 -17 -40 -45 -79 -27 -38 -50 -71
-50 -74 0 -3 -28 -48 -63 -100 -66 -101 -135 -183 -284 -337 -50 -52 -124
-133 -165 -179 -40 -47 -86 -96 -102 -110 -16 -14 -51 -48 -78 -74 -64 -62
-97 -69 -138 -29 -31 31 -37 60 -31 157 2 37 116 412 146 480 7 17 41 99 74
183 34 84 83 187 109 230 47 74 67 108 138 238 43 76 83 190 77 215 -8 29 -74
26 -111 -6 -23 -19 -30 -35 -35 -76 -4 -30 -15 -61 -26 -73 -26 -29 -85 -149
-115 -236 -29 -82 -65 -148 -110 -202 -153 -182 -285 -325 -476 -517 -257
-258 -643 -629 -710 -682 -57 -45 -343 -184 -364 -176 -8 3 -18 22 -22 41 -7
41 13 136 32 151 18 13 7 53 -17 60 -11 4 -31 -3 -50 -17 l-31 -23 5 -115 c3
-63 7 -121 9 -129 2 -8 -20 -30 -50 -50 -29 -20 -61 -51 -72 -69 -21 -34 -28
-88 -10 -77 7 4 9 -2 4 -19 -5 -20 3 -34 43 -77 26 -28 75 -69 107 -91 68 -45
227 -101 336 -117 41 -7 116 -19 165 -27 72 -12 169 -14 488 -12 l397 3 0 -21
c0 -12 -7 -57 -16 -99 -9 -43 -14 -90 -12 -106 3 -16 1 -29 -4 -29 -5 0 -7 -8
-4 -17 3 -10 6 -58 7 -108 3 -90 3 -90 43 -132 30 -33 46 -43 70 -43 43 1 65
23 116 114 40 73 42 82 33 117 -8 30 -6 47 9 86 10 26 30 84 43 128 13 44 28
79 34 78 6 -2 11 2 11 7 0 6 -5 10 -10 10 -6 0 -2 10 9 21 16 18 38 23 118 31
179 16 467 50 563 65 52 9 106 17 120 18 33 4 166 30 255 50 122 27 122 27
104 13 -26 -21 -40 -56 -41 -99 -1 -71 33 -78 51 -11 12 41 62 98 128 143 45
32 52 49 28 69 -11 9 -24 9 -62 -4 -26 -8 -102 -25 -168 -36 -66 -11 -147 -27
-181 -35 -108 -27 -494 -82 -624 -89 -51 -3 -110 -9 -231 -22 l-47 -4 -4 157
c-4 130 -8 169 -27 221 l-22 63 23 37 c13 20 39 67 58 103 41 78 201 318 213
319 4 0 5 -10 2 -22 -3 -14 3 -36 15 -55 16 -27 26 -33 54 -33 33 0 99 30 121
54 25 28 265 218 302 240 9 5 11 2 7 -9 -4 -8 1 -26 10 -40 13 -19 25 -25 54
-25 21 0 44 6 51 13 10 10 16 7 33 -15 30 -42 59 -36 155 33 47 33 93 63 102
67 9 3 63 35 121 70 58 35 123 74 145 86 72 40 90 51 113 70 12 11 22 17 22
14 0 -6 -24 -69 -40 -103 -44 -96 -62 -246 -39 -313 11 -34 49 -52 105 -52 50
0 77 14 231 118 160 109 191 129 213 139 47 21 192 126 318 229 18 15 36 24
40 20 3 -4 -2 -28 -12 -54 -10 -26 -37 -101 -60 -167 -24 -66 -52 -141 -63
-167 -25 -54 -48 -214 -39 -264 6 -30 11 -34 38 -34 24 0 43 13 94 66 35 36
81 91 101 122 20 31 67 91 103 132 37 41 74 86 83 100 9 13 90 100 179 193 90
93 169 179 177 191 8 11 40 50 71 86 32 36 109 133 172 215 198 259 289 424
342 618 44 159 52 243 32 328 -38 166 -95 248 -193 282 -54 18 -212 37 -298
35 -27 0 -106 -8 -175 -18z m30 -69 c0 -5 -7 -14 -15 -21 -21 -17 -19 -30 5
-30 11 0 20 3 20 8 0 4 13 13 30 20 33 15 62 9 99 -20 17 -12 40 -19 70 -18
25 0 92 -3 149 -6 71 -4 107 -3 115 5 19 19 25 13 53 -46 14 -32 31 -67 38
-78 16 -28 15 -312 -1 -345 -18 -38 -26 -64 -24 -77 1 -7 -7 -29 -17 -50 -36
-73 -77 -148 -85 -158 -4 -5 -27 -45 -51 -87 -24 -42 -63 -101 -88 -130 -24
-29 -55 -69 -68 -88 -77 -112 -288 -354 -505 -578 -71 -74 -169 -182 -216
-241 -66 -82 -91 -106 -110 -106 -20 0 -26 -8 -38 -47 -15 -51 -36 -67 -25
-20 6 27 70 215 138 406 19 54 38 126 41 161 7 58 11 66 72 136 68 78 143 174
143 184 0 3 20 40 45 83 24 42 60 126 80 186 29 92 35 124 35 198 0 118 -15
152 -77 180 -73 33 -173 30 -292 -11 -100 -34 -348 -150 -394 -185 -102 -77
-144 -134 -167 -228 -9 -33 -18 -48 -29 -48 -36 0 -74 -39 -103 -107 -16 -37
-33 -77 -38 -88 -40 -94 -64 -142 -109 -219 -28 -49 -51 -91 -51 -93 0 -13
-92 -83 -108 -83 -4 0 -25 -12 -46 -26 -39 -27 -128 -72 -321 -164 -60 -29
-118 -59 -127 -68 -16 -14 -18 -13 -20 4 0 10 0 31 1 45 2 30 -29 62 -56 57
-13 -3 -17 -12 -16 -33 2 -26 -4 -33 -36 -47 -53 -25 -55 -23 -25 27 21 37 24
48 14 60 -7 8 -19 15 -27 15 -16 0 -172 -109 -286 -199 -40 -32 -88 -62 -106
-66 -19 -4 -42 -20 -57 -41 -42 -54 -54 -46 -54 39 0 82 6 95 104 221 315 405
537 656 826 931 160 152 374 325 402 325 5 0 19 10 31 23 46 47 137 106 382
245 11 6 65 32 120 58 55 26 107 52 115 59 21 17 238 94 285 102 22 3 49 12
60 19 11 7 40 15 65 19 25 3 88 14 140 24 52 10 98 19 103 20 4 0 7 -3 7 -8z
m-178 -684 c-7 -8 -8 -26 -2 -50 9 -40 -6 -130 -36 -220 -32 -97 -113 -256
-156 -304 -24 -28 -59 -70 -79 -94 -92 -110 -73 -99 -186 -106 l-101 -6 -89
89 c-107 108 -142 166 -144 238 -2 124 34 223 102 280 36 30 81 45 87 28 6
-19 18 -14 30 13 6 14 20 25 29 25 16 1 57 14 106 35 12 5 17 3 17 -9 0 -19 4
-19 50 -5 19 6 64 17 99 25 66 14 179 46 241 68 39 14 48 13 32 -7z m-836
-583 c13 -30 29 -52 34 -49 6 3 10 -3 10 -14 0 -22 97 -119 170 -170 35 -24
63 -35 100 -39 l51 -5 -28 -29 c-31 -34 -146 -118 -159 -118 -9 0 -143 -95
-176 -124 -9 -8 -27 -20 -39 -26 -12 -7 -54 -37 -92 -66 -59 -46 -77 -54 -112
-54 -32 0 -52 -7 -80 -30 -68 -54 -94 -31 -81 74 8 68 33 140 90 256 38 78 61
109 126 173 43 42 76 77 73 77 -3 0 0 6 6 14 6 7 22 44 35 82 30 87 37 104 43
104 2 0 15 -25 29 -56z m-2144 -146 c-22 -62 -54 -149 -71 -192 -36 -94 -81
-287 -81 -348 0 -55 17 -118 38 -142 31 -34 93 -59 133 -53 85 11 202 125 216
211 3 19 19 50 35 68 31 34 29 23 -5 -25 -34 -49 -7 -44 40 8 93 102 254 267
258 263 3 -3 -14 -47 -65 -163 -5 -11 -18 -50 -30 -86 -20 -63 -109 -220 -151
-265 -10 -11 -19 -25 -19 -31 0 -6 -12 -26 -27 -46 -16 -20 -40 -56 -54 -79
-15 -24 -43 -69 -64 -101 l-37 -59 -24 36 c-13 19 -24 44 -24 55 0 11 -8 28
-18 38 -10 10 -35 41 -55 70 -51 70 -99 110 -149 124 -95 25 -379 -2 -483 -46
-16 -7 -49 -16 -72 -20 -23 -3 -47 -13 -54 -21 -6 -8 -20 -14 -30 -14 -10 0
-43 -12 -74 -27 -36 -18 -58 -24 -65 -17 -9 9 6 25 300 309 69 67 148 145 176
175 29 30 74 75 100 101 59 55 312 322 357 377 19 23 33 34 35 26 2 -7 -15
-64 -36 -126z m2022 48 c-3 -9 -10 -16 -15 -16 -6 0 -5 9 1 21 13 24 24 20 14
-5z m-65 -78 c-8 -14 -14 -18 -17 -10 -4 13 17 46 25 38 3 -2 -1 -15 -8 -28z
m736 -515 c-10 -16 -25 -37 -35 -48 -9 -11 -20 -28 -23 -37 -4 -10 -11 -18
-16 -18 -17 0 0 32 42 83 43 52 59 62 32 20z m-2504 -16 c-10 -9 -11 -8 -5 6
3 10 9 15 12 12 3 -3 0 -11 -7 -18z m-395 -222 c24 -23 52 -26 39 -4 -12 19
51 -17 81 -46 54 -53 154 -236 154 -282 0 -9 -22 -60 -49 -112 -26 -53 -58
-123 -71 -156 -12 -33 -27 -69 -32 -80 -4 -11 -14 -42 -21 -70 -12 -48 -13
-50 -57 -57 -71 -13 -707 0 -870 17 -147 16 -287 46 -327 71 -12 8 -31 14 -41
14 -39 0 -182 109 -182 139 0 8 -3 11 -7 8 -10 -11 -43 24 -43 44 0 11 21 33
51 53 50 33 53 34 128 29 94 -6 122 6 226 96 117 102 211 171 231 171 11 0 25
5 30 10 21 21 168 70 175 59 4 -8 10 -5 17 6 5 10 20 19 33 21 13 1 26 3 29 4
3 1 15 1 28 0 12 -1 22 3 22 9 0 6 13 11 28 11 15 0 34 6 41 13 6 6 26 13 44
13 104 4 298 19 279 22 -12 2 -20 8 -17 13 11 17 54 9 81 -16z m-1136 -345 c0
-5 -4 -10 -10 -10 -5 0 -10 5 -10 10 0 6 5 10 10 10 6 0 10 -4 10 -10z m1471
-127 c14 -65 18 -297 6 -310 -9 -8 -177 -19 -177 -11 0 36 137 377 152 378 4
0 12 -26 19 -57z m1 -399 c3 -3 0 -26 -8 -52 -26 -93 -56 -228 -56 -253 1 -20
-7 -30 -31 -41 -29 -14 -39 -27 -77 -108 -12 -26 -35 -16 -47 20 -16 48 -16
135 2 275 19 148 21 153 48 158 34 7 163 8 169 1z"/>
<path d="M5096 3574 c-4 -9 -4 -19 -1 -22 2 -3 7 3 11 12 4 9 4 19 1 22 -2 3
-7 -3 -11 -12z"/>
<path d="M5338 3583 c7 -3 16 -2 19 1 4 3 -2 6 -13 5 -11 0 -14 -3 -6 -6z"/>
<path d="M4345 3250 c-3 -5 1 -10 9 -10 8 0 18 5 21 10 3 6 -1 10 -9 10 -8 0
-18 -4 -21 -10z"/>
<path d="M4066 3122 c-2 -4 4 -13 15 -20 21 -13 22 -12 13 12 -7 17 -20 21
-28 8z"/>
</g>
</svg>
