<?xml version="1.0" encoding="UTF-8"?>
<svg id="Layer_2" data-name="Layer 2" xmlns="http://www.w3.org/2000/svg" xmlns:xlink="http://www.w3.org/1999/xlink" viewBox="0 0 41.8 20.36">
  <defs>
    <style>
      .cls-1 {
        fill: url(#linear-gradient);
      }
    </style>
    <linearGradient id="linear-gradient" x1="8.01" y1="23.07" x2="34.29" y2="-3.22" gradientUnits="userSpaceOnUse">
      <stop offset="0" stop-color="#262262"/>
      <stop offset=".3" stop-color="#3f61ac"/>
      <stop offset=".6" stop-color="#4992ce"/>
      <stop offset="1" stop-color="#22bbad"/>
    </linearGradient>
  </defs>
  <g id="Layer_1-2" data-name="Layer 1">
    <path class="cls-1" d="M4.93,19.99V7.28H0v-3c.69,.02,1.36-.03,2-.15,.64-.12,1.22-.34,1.74-.64,.51-.31,.95-.71,1.3-1.22s.59-1.13,.7-1.88h3.16V19.99h-3.98ZM11.86,5.31c.38-1.3,.9-2.34,1.55-3.12,.65-.78,1.41-1.34,2.28-1.68s1.79-.5,2.76-.5,1.92,.17,2.79,.5,1.63,.9,2.3,1.68c.66,.78,1.19,1.82,1.57,3.12,.38,1.3,.57,2.9,.57,4.8s-.19,3.6-.57,4.91c-.38,1.32-.91,2.37-1.57,3.15-.66,.78-1.43,1.34-2.3,1.68s-1.8,.5-2.79,.5-1.89-.17-2.76-.5-1.63-.9-2.28-1.68c-.65-.78-1.17-1.83-1.55-3.15-.38-1.32-.57-2.95-.57-4.91s.19-3.5,.57-4.8Zm3.46,6.83c.04,.79,.15,1.56,.35,2.3,.2,.74,.51,1.37,.94,1.89,.43,.52,1.04,.78,1.85,.78s1.45-.26,1.89-.78c.44-.52,.76-1.15,.95-1.89,.2-.74,.31-1.5,.35-2.3,.04-.79,.06-1.47,.06-2.03,0-.34,0-.74-.01-1.22,0-.48-.05-.97-.11-1.47s-.16-1-.28-1.5c-.12-.49-.3-.94-.55-1.33-.24-.39-.55-.71-.92-.95-.37-.24-.83-.36-1.37-.36s-.99,.12-1.36,.36c-.36,.24-.66,.56-.9,.95-.23,.39-.42,.84-.55,1.33-.13,.5-.22,.99-.28,1.5-.06,.5-.09,.99-.1,1.47,0,.48-.01,.88-.01,1.22,0,.56,.02,1.24,.06,2.03Zm12.67-6.83c.38-1.3,.9-2.34,1.55-3.12,.65-.78,1.41-1.34,2.28-1.68s1.79-.5,2.76-.5,1.92,.17,2.79,.5,1.63,.9,2.3,1.68c.66,.78,1.19,1.82,1.57,3.12,.38,1.3,.57,2.9,.57,4.8s-.19,3.6-.57,4.91c-.38,1.32-.91,2.37-1.57,3.15-.66,.78-1.43,1.34-2.3,1.68s-1.8,.5-2.79,.5-1.89-.17-2.76-.5-1.63-.9-2.28-1.68c-.65-.78-1.17-1.83-1.55-3.15-.38-1.32-.57-2.95-.57-4.91s.19-3.5,.57-4.8Zm3.46,6.83c.04,.79,.15,1.56,.35,2.3,.2,.74,.51,1.37,.94,1.89,.43,.52,1.04,.78,1.85,.78s1.45-.26,1.89-.78c.44-.52,.76-1.15,.95-1.89,.2-.74,.31-1.5,.35-2.3,.04-.79,.06-1.47,.06-2.03,0-.34,0-.74-.01-1.22,0-.48-.05-.97-.11-1.47s-.16-1-.28-1.5c-.12-.49-.3-.94-.55-1.33-.24-.39-.55-.71-.92-.95-.37-.24-.83-.36-1.37-.36s-.99,.12-1.36,.36c-.36,.24-.66,.56-.9,.95-.23,.39-.42,.84-.55,1.33-.13,.5-.22,.99-.28,1.5-.06,.5-.09,.99-.1,1.47,0,.48-.01,.88-.01,1.22,0,.56,.02,1.24,.06,2.03Z"/>
  </g>
</svg>