<?xml version="1.0" encoding="UTF-8"?>
<svg id="Layer_2" data-name="Layer 2" xmlns="http://www.w3.org/2000/svg" xmlns:xlink="http://www.w3.org/1999/xlink" viewBox="0 0 29.46 20.36">
  <defs>
    <style>
      .cls-1 {
        fill: url(#linear-gradient);
      }
    </style>
    <linearGradient id="linear-gradient" x1="2.84" y1="20.12" x2="24.06" y2="-1.1" gradientUnits="userSpaceOnUse">
      <stop offset="0" stop-color="#262262"/>
      <stop offset=".3" stop-color="#3f61ac"/>
      <stop offset=".6" stop-color="#4992ce"/>
      <stop offset="1" stop-color="#22bbad"/>
    </linearGradient>
  </defs>
  <g id="Layer_1-2" data-name="Layer 1">
    <path class="cls-1" d="M10.65,7.11c-.79,1.31-1.46,2.7-1.99,4.17-.53,1.47-.94,2.97-1.23,4.48-.29,1.51-.44,2.92-.46,4.23H2.72c.22-2.93,.91-5.75,2.06-8.46,1.15-2.71,2.65-5.19,4.52-7.45H0V.39H13.38V3.81c-1.03,.9-1.94,2-2.73,3.3Zm4.98-1.81c.38-1.3,.9-2.34,1.55-3.12,.65-.78,1.41-1.34,2.28-1.68s1.79-.5,2.76-.5,1.92,.17,2.79,.5,1.63,.9,2.3,1.68c.66,.78,1.19,1.82,1.57,3.12,.38,1.3,.57,2.9,.57,4.8s-.19,3.6-.57,4.91c-.38,1.32-.91,2.37-1.57,3.15-.66,.78-1.43,1.34-2.3,1.68s-1.8,.5-2.79,.5-1.89-.17-2.76-.5-1.63-.9-2.28-1.68c-.65-.78-1.17-1.83-1.55-3.15-.38-1.32-.57-2.95-.57-4.91s.19-3.5,.57-4.8Zm3.46,6.83c.04,.79,.15,1.56,.35,2.3,.2,.74,.51,1.37,.94,1.89,.43,.52,1.04,.78,1.85,.78s1.45-.26,1.89-.78c.44-.52,.76-1.15,.95-1.89,.2-.74,.31-1.5,.35-2.3,.04-.79,.06-1.47,.06-2.03,0-.34,0-.74-.01-1.22,0-.48-.05-.97-.11-1.47s-.16-1-.28-1.5c-.12-.49-.3-.94-.55-1.33-.24-.39-.55-.71-.92-.95-.37-.24-.83-.36-1.37-.36s-.99,.12-1.36,.36c-.36,.24-.66,.56-.9,.95-.23,.39-.42,.84-.55,1.33-.13,.5-.22,.99-.28,1.5-.06,.5-.09,.99-.1,1.47,0,.48-.01,.88-.01,1.22,0,.56,.02,1.24,.06,2.03Z"/>
  </g>
</svg>