<?xml version="1.0" encoding="UTF-8"?>
<svg id="Layer_2" data-name="Layer 2" xmlns="http://www.w3.org/2000/svg" xmlns:xlink="http://www.w3.org/1999/xlink" viewBox="0 0 30.16 20.36">
  <defs>
    <style>
      .cls-1 {
        fill: url(#linear-gradient);
      }
    </style>
    <linearGradient id="linear-gradient" x1="4.25" y1="20.95" x2="25.53" y2="-.33" gradientUnits="userSpaceOnUse">
      <stop offset="0" stop-color="#262262"/>
      <stop offset=".3" stop-color="#3f61ac"/>
      <stop offset=".6" stop-color="#4992ce"/>
      <stop offset="1" stop-color="#22bbad"/>
    </linearGradient>
  </defs>
  <g id="Layer_1-2" data-name="Layer 1">
    <path class="cls-1" d="M1.4,3.02c.39-.67,.9-1.23,1.53-1.68,.63-.45,1.33-.78,2.11-1.01,.78-.22,1.58-.34,2.38-.34,1.21,0,2.24,.19,3.08,.56,.84,.37,1.52,.83,2.03,1.36,.51,.53,.88,1.1,1.11,1.71,.22,.61,.34,1.15,.34,1.64,0,.97-.24,1.82-.71,2.55-.48,.73-1.19,1.25-2.14,1.57v.06c1.18,.26,2.08,.82,2.72,1.67,.63,.85,.95,1.89,.95,3.12,0,1.04-.21,1.95-.63,2.72s-.98,1.4-1.67,1.9c-.69,.5-1.47,.88-2.35,1.13s-1.77,.38-2.69,.38-1.87-.12-2.76-.35c-.89-.23-1.68-.6-2.38-1.11-.7-.5-1.26-1.14-1.68-1.9-.42-.76-.63-1.68-.63-2.74,0-1.25,.32-2.3,.97-3.14s1.55-1.4,2.73-1.68v-.06c-.95-.26-1.67-.76-2.16-1.48-.49-.73-.73-1.58-.73-2.55,0-.88,.2-1.65,.59-2.32Zm2.86,12.4c.19,.41,.43,.76,.74,1.05s.68,.51,1.11,.67c.43,.16,.88,.24,1.34,.24s.93-.08,1.33-.24,.76-.38,1.06-.67,.55-.64,.71-1.05c.17-.41,.25-.86,.25-1.34s-.09-.89-.27-1.27c-.18-.38-.42-.71-.73-.99-.31-.28-.66-.49-1.06-.64-.4-.15-.84-.22-1.3-.22-.97,0-1.79,.27-2.46,.8s-1.01,1.3-1.01,2.31c0,.5,.09,.96,.28,1.37Zm1.06-7.8c.6,.44,1.3,.66,2.1,.66s1.54-.22,2.1-.66c.56-.44,.84-1.08,.84-1.92,0-.26-.04-.55-.11-.85-.07-.31-.22-.6-.43-.88-.21-.28-.51-.51-.9-.7-.38-.19-.88-.28-1.5-.28-.39,0-.77,.06-1.13,.18-.36,.12-.69,.29-.97,.52-.28,.22-.5,.5-.66,.84-.16,.34-.24,.73-.24,1.18,0,.84,.3,1.48,.9,1.92Zm11.02-2.32c.38-1.3,.9-2.34,1.55-3.12,.65-.78,1.41-1.34,2.28-1.68s1.79-.5,2.76-.5,1.92,.17,2.79,.5,1.63,.9,2.3,1.68c.66,.78,1.19,1.82,1.57,3.12,.38,1.3,.57,2.9,.57,4.8s-.19,3.6-.57,4.91c-.38,1.32-.91,2.37-1.57,3.15-.66,.78-1.43,1.34-2.3,1.68s-1.8,.5-2.79,.5-1.89-.17-2.76-.5-1.63-.9-2.28-1.68c-.65-.78-1.17-1.83-1.55-3.15-.38-1.32-.57-2.95-.57-4.91s.19-3.5,.57-4.8Zm3.46,6.83c.04,.79,.15,1.56,.35,2.3,.2,.74,.51,1.37,.94,1.89,.43,.52,1.04,.78,1.85,.78s1.45-.26,1.89-.78c.44-.52,.76-1.15,.95-1.89,.2-.74,.31-1.5,.35-2.3,.04-.79,.06-1.47,.06-2.03,0-.34,0-.74-.01-1.22,0-.48-.05-.97-.11-1.47s-.16-1-.28-1.5c-.12-.49-.3-.94-.55-1.33-.24-.39-.55-.71-.92-.95-.37-.24-.83-.36-1.37-.36s-.99,.12-1.36,.36c-.36,.24-.66,.56-.9,.95-.23,.39-.42,.84-.55,1.33-.13,.5-.22,.99-.28,1.5-.06,.5-.09,.99-.1,1.47,0,.48-.01,.88-.01,1.22,0,.56,.02,1.24,.06,2.03Z"/>
  </g>
</svg>