<?xml version="1.0" encoding="UTF-8"?>
<svg id="Layer_2" data-name="Layer 2" xmlns="http://www.w3.org/2000/svg" xmlns:xlink="http://www.w3.org/1999/xlink" viewBox="0 0 438.34 35.43">
  <defs>
    <style>
      .cls-1 {
        fill: #3ab54a;
      }

      .cls-2 {
        fill: #ffcc06;
      }

      .cls-3 {
        fill: #0e2439;
      }

      .cls-4 {
        fill: #22bbad;
      }

      .cls-5 {
        fill: #e11a5b;
      }

      .cls-6 {
        fill: #1b1464;
      }

      .cls-7 {
        fill: url(#linear-gradient);
      }

      .cls-8 {
        fill: #1b1136;
      }
    </style>
    <linearGradient id="linear-gradient" x1="331.79" y1="32.31" x2="350.43" y2="13.67" gradientUnits="userSpaceOnUse">
      <stop offset="0" stop-color="#317cff"/>
      <stop offset="1" stop-color="#00ffa2"/>
    </linearGradient>
  </defs>
  <g id="Layer_1-2" data-name="Layer 1">
    <g>
      <g>
        <path class="cls-4" d="M8.74,10.37c-.81,.22-1.59,.51-2.34,.87C6.89,4.96,12.16,0,18.57,0s11.68,4.96,12.18,11.24c-.75-.37-1.54-.66-2.34-.88-.87-4.63-4.95-8.15-9.83-8.15s-8.96,3.52-9.83,8.15Zm21.44,5.67c-.26-.19-.52-.36-.8-.52-.38-.22-.77-.41-1.17-.57-.54,1.91-1.64,3.58-3.1,4.85,.22,.81,.36,1.64,.41,2.47,2.16-1.5,3.82-3.68,4.66-6.23Zm-9.15,5.89c-.78,.2-1.61,.3-2.45,.3s-1.67-.11-2.45-.3c-.11,.75-.12,1.51-.04,2.26,.8,.17,1.64,.26,2.49,.26s1.69-.09,2.49-.26c.08-.76,.07-1.52-.04-2.26Zm-12.08-6.97c-.4,.16-.8,.35-1.18,.57-.28,.16-.55,.34-.8,.53,.84,2.55,2.5,4.73,4.67,6.23,.06-.83,.2-1.66,.41-2.47-1.46-1.26-2.56-2.94-3.1-4.85Z"/>
        <path class="cls-5" d="M15.52,13.78c-1.83-.64-3.83-.75-5.75-.26-.06-.42-.1-.86-.1-1.3,0-.32,.02-.64,.05-.96,2.63-.55,5.36-.2,7.74,.93-.69,.47-1.35,1-1.94,1.59Zm3.88,2.47c.56,.58,1.06,1.24,1.48,1.97,.42,.73,.74,1.49,.96,2.27,.7-.28,1.37-.65,1.98-1.1-.26-.78-.6-1.54-1.02-2.27-.43-.74-.92-1.41-1.46-2.02-.69,.31-1.34,.7-1.94,1.16Zm1.93,15.11c1.79-2,2.85-4.53,3.06-7.15-.75,.36-1.53,.66-2.35,.87-.36,1.9-1.27,3.69-2.65,5.11,.34,.27,.7,.52,1.07,.73,.28,.16,.57,.3,.86,.43ZM3.55,28.22c-2.44-4.23-1.43-9.51,2.14-12.59-.21-.8-.35-1.62-.41-2.47C.09,16.74-1.57,23.78,1.63,29.33c3.2,5.55,10.13,7.63,15.82,4.93-.7-.47-1.34-1.01-1.93-1.59-4.45,1.56-9.53-.21-11.97-4.44Z"/>
        <path class="cls-2" d="M15.29,20.48c-.7-.28-1.37-.65-1.98-1.1,.26-.78,.6-1.54,1.02-2.28,.43-.74,.92-1.41,1.46-2.02,.69,.31,1.34,.7,1.94,1.16-.56,.58-1.06,1.24-1.48,1.97-.42,.73-.74,1.49-.96,2.27Zm12.08-6.96c.06-.42,.1-.86,.1-1.3,0-.32-.02-.64-.06-.96-2.63-.55-5.35-.2-7.74,.93,.69,.47,1.35,1,1.94,1.59,1.83-.64,3.83-.75,5.75-.26Zm4.49-.35c-.06,.85-.2,1.67-.41,2.47,3.58,3.07,4.58,8.36,2.14,12.59-2.44,4.23-7.53,6-11.97,4.44-.59,.59-1.23,1.12-1.93,1.59,5.69,2.71,12.62,.62,15.82-4.93,3.2-5.55,1.54-12.59-3.64-16.16ZM12.75,24.21c.22,2.62,1.28,5.15,3.06,7.15,.29-.13,.58-.27,.86-.43,.38-.22,.74-.47,1.07-.73-1.38-1.42-2.29-3.21-2.65-5.11-.81-.22-1.6-.51-2.35-.88Z"/>
        <g>
          <path class="cls-8" d="M44.39,5.99h3.93c.96,0,1.81,.19,2.55,.56s1.32,.9,1.73,1.58,.62,1.46,.62,2.35-.21,1.67-.62,2.35-.99,1.21-1.73,1.58c-.74,.37-1.59,.56-2.55,.56h-3.93V5.99Zm3.85,7.57c.66,0,1.24-.13,1.74-.38,.5-.25,.89-.61,1.15-1.08,.27-.47,.4-1.01,.4-1.62s-.13-1.16-.4-1.62c-.27-.47-.65-.83-1.15-1.08-.5-.25-1.08-.38-1.74-.38h-2.18v6.16h2.18Z"/>
          <path class="cls-8" d="M59.23,8.76c.53,.48,.8,1.21,.8,2.19v4.01h-1.51v-.83c-.2,.3-.48,.53-.84,.69-.36,.16-.8,.24-1.31,.24s-.96-.09-1.35-.26c-.38-.18-.68-.42-.89-.73-.21-.31-.31-.66-.31-1.06,0-.62,.23-1.11,.69-1.48,.46-.37,1.18-.56,2.16-.56h1.77v-.1c0-.48-.14-.85-.43-1.1-.29-.26-.71-.38-1.28-.38-.38,0-.76,.06-1.14,.18-.37,.12-.69,.29-.94,.5l-.63-1.17c.36-.27,.79-.48,1.3-.63,.5-.15,1.04-.22,1.6-.22,1.01,0,1.78,.24,2.32,.72Zm-1.46,4.85c.31-.18,.53-.45,.66-.79v-.8h-1.66c-.92,0-1.39,.3-1.39,.91,0,.29,.12,.52,.35,.69,.23,.17,.55,.26,.96,.26s.76-.09,1.07-.28Z"/>
          <path class="cls-8" d="M65.66,14.59c-.19,.15-.42,.27-.69,.35-.27,.08-.55,.12-.85,.12-.75,0-1.33-.2-1.74-.59-.41-.39-.62-.97-.62-1.72v-3.3h-1.13v-1.28h1.13v-1.57h1.6v1.57h1.83v1.28h-1.83v3.26c0,.33,.08,.59,.24,.76,.16,.18,.4,.26,.71,.26,.36,0,.66-.09,.9-.28l.45,1.14Z"/>
          <path class="cls-8" d="M71.69,8.76c.53,.48,.8,1.21,.8,2.19v4.01h-1.51v-.83c-.2,.3-.48,.53-.84,.69-.36,.16-.8,.24-1.31,.24s-.96-.09-1.35-.26c-.38-.18-.68-.42-.89-.73-.21-.31-.31-.66-.31-1.06,0-.62,.23-1.11,.69-1.48,.46-.37,1.18-.56,2.16-.56h1.77v-.1c0-.48-.14-.85-.43-1.1-.29-.26-.71-.38-1.28-.38-.38,0-.76,.06-1.14,.18-.37,.12-.69,.29-.94,.5l-.63-1.17c.36-.27,.79-.48,1.3-.63,.5-.15,1.04-.22,1.6-.22,1.01,0,1.78,.24,2.32,.72Zm-1.46,4.85c.31-.18,.53-.45,.66-.79v-.8h-1.66c-.92,0-1.39,.3-1.39,.91,0,.29,.12,.52,.35,.69,.23,.17,.55,.26,.96,.26s.76-.09,1.07-.28Z"/>
          <path class="cls-8" d="M78.37,14.8c-.65-.2-1.16-.46-1.53-.78l.58-1.3c.37,.29,.82,.53,1.35,.71,.53,.18,1.07,.28,1.61,.28,.67,0,1.17-.11,1.49-.32,.33-.21,.49-.5,.49-.85,0-.26-.09-.47-.28-.64-.18-.17-.42-.3-.7-.39-.28-.09-.67-.2-1.15-.32-.68-.16-1.24-.32-1.66-.49s-.79-.42-1.09-.76c-.3-.35-.46-.81-.46-1.4,0-.5,.13-.95,.4-1.35,.27-.41,.68-.73,1.22-.97,.54-.24,1.21-.36,1.99-.36,.55,0,1.09,.07,1.62,.21,.53,.14,.99,.33,1.37,.59l-.53,1.3c-.39-.23-.8-.41-1.23-.53-.43-.12-.84-.18-1.24-.18-.66,0-1.15,.11-1.47,.33-.32,.22-.48,.52-.48,.89,0,.26,.09,.47,.28,.63,.18,.16,.42,.29,.7,.38,.28,.09,.67,.2,1.15,.32,.67,.15,1.21,.31,1.64,.48,.43,.17,.79,.42,1.1,.76,.3,.34,.46,.8,.46,1.39,0,.5-.13,.95-.4,1.35-.27,.4-.68,.72-1.23,.96-.55,.24-1.21,.36-2,.36-.69,0-1.36-.1-2.01-.29Z"/>
          <path class="cls-8" d="M86.4,14.61c-.56-.3-1.01-.72-1.32-1.25-.32-.53-.47-1.14-.47-1.82s.16-1.28,.47-1.81c.32-.53,.75-.94,1.31-1.24,.56-.3,1.2-.45,1.92-.45,.68,0,1.27,.14,1.78,.41,.51,.27,.89,.67,1.15,1.18l-1.23,.72c-.2-.32-.44-.55-.74-.71-.29-.16-.62-.24-.97-.24-.6,0-1.09,.19-1.49,.58-.39,.39-.59,.91-.59,1.56s.19,1.17,.58,1.56,.89,.58,1.49,.58c.35,0,.67-.08,.97-.24,.29-.16,.54-.4,.74-.71l1.23,.72c-.27,.51-.65,.91-1.16,1.19-.51,.28-1.1,.42-1.76,.42-.71,0-1.35-.15-1.91-.45Z"/>
          <path class="cls-8" d="M92.12,6.71c-.2-.18-.29-.41-.29-.69s.1-.5,.29-.69,.44-.28,.73-.28,.53,.09,.73,.26c.2,.18,.3,.4,.3,.66,0,.28-.1,.52-.29,.71-.19,.19-.44,.29-.74,.29s-.53-.09-.73-.28Zm-.08,1.4h1.6v6.85h-1.6v-6.85Z"/>
          <path class="cls-8" d="M101.42,12.05h-5.38c.09,.5,.34,.9,.74,1.2,.4,.3,.89,.44,1.48,.44,.75,0,1.37-.25,1.86-.74l.86,.99c-.31,.37-.7,.65-1.17,.83-.47,.19-1,.28-1.59,.28-.75,0-1.42-.15-1.99-.45-.57-.3-1.02-.72-1.33-1.25-.31-.53-.47-1.14-.47-1.82s.15-1.27,.46-1.8c.3-.53,.72-.95,1.26-1.25,.54-.3,1.15-.45,1.82-.45s1.26,.15,1.79,.44c.53,.3,.94,.71,1.23,1.24,.3,.53,.44,1.15,.44,1.85,0,.11,0,.27-.03,.47Zm-4.74-2.28c-.35,.3-.57,.71-.65,1.21h3.89c-.07-.5-.28-.9-.63-1.21-.35-.31-.79-.46-1.31-.46s-.95,.15-1.3,.46Z"/>
          <path class="cls-8" d="M108.22,8.79c.52,.5,.78,1.25,.78,2.24v3.93h-1.6v-3.72c0-.6-.14-1.05-.42-1.35-.28-.3-.68-.46-1.21-.46-.59,0-1.06,.18-1.4,.53-.34,.36-.51,.87-.51,1.53v3.46h-1.6v-6.85h1.53v.89c.27-.32,.6-.56,1-.72,.4-.16,.85-.24,1.36-.24,.86,0,1.56,.25,2.08,.76Z"/>
          <path class="cls-8" d="M111.6,14.61c-.56-.3-1.01-.72-1.32-1.25-.32-.53-.47-1.14-.47-1.82s.16-1.28,.47-1.81c.32-.53,.75-.94,1.31-1.24,.56-.3,1.2-.45,1.92-.45,.68,0,1.27,.14,1.78,.41,.51,.27,.89,.67,1.15,1.18l-1.23,.72c-.2-.32-.44-.55-.74-.71-.29-.16-.62-.24-.97-.24-.6,0-1.09,.19-1.49,.58-.39,.39-.59,.91-.59,1.56s.19,1.17,.58,1.56c.39,.39,.89,.58,1.49,.58,.35,0,.67-.08,.97-.24,.29-.16,.54-.4,.74-.71l1.23,.72c-.27,.51-.65,.91-1.16,1.19-.51,.28-1.1,.42-1.76,.42-.71,0-1.35-.15-1.91-.45Z"/>
          <path class="cls-8" d="M123.81,12.05h-5.38c.09,.5,.34,.9,.74,1.2,.4,.3,.89,.44,1.48,.44,.75,0,1.37-.25,1.86-.74l.86,.99c-.31,.37-.7,.65-1.17,.83-.47,.19-1,.28-1.59,.28-.75,0-1.42-.15-1.99-.45-.57-.3-1.02-.72-1.33-1.25-.31-.53-.47-1.14-.47-1.82s.15-1.27,.46-1.8c.3-.53,.72-.95,1.26-1.25,.54-.3,1.15-.45,1.82-.45s1.26,.15,1.79,.44c.53,.3,.94,.71,1.23,1.24,.3,.53,.44,1.15,.44,1.85,0,.11,0,.27-.03,.47Zm-4.74-2.28c-.35,.3-.57,.71-.65,1.21h3.89c-.07-.5-.28-.9-.63-1.21-.35-.31-.79-.46-1.31-.46s-.95,.15-1.3,.46Z"/>
          <path class="cls-8" d="M50.62,25.71h-4.49l-.88,2.08h-1.72l4.04-8.98h1.64l4.05,8.98h-1.74l-.9-2.08Zm-.55-1.31l-1.69-3.93-1.68,3.93h3.37Z"/>
          <path class="cls-8" d="M54.76,27.43c-.56-.3-1.01-.72-1.32-1.25-.32-.53-.47-1.14-.47-1.82s.16-1.28,.47-1.81c.32-.53,.75-.94,1.31-1.24,.56-.3,1.2-.45,1.92-.45,.68,0,1.27,.14,1.78,.41,.51,.27,.89,.67,1.15,1.18l-1.23,.72c-.2-.32-.44-.55-.74-.71-.29-.16-.62-.24-.97-.24-.6,0-1.09,.19-1.49,.58-.39,.39-.59,.91-.59,1.56s.19,1.17,.58,1.56c.39,.39,.89,.58,1.49,.58,.35,0,.67-.08,.97-.24,.29-.16,.54-.4,.74-.71l1.23,.72c-.27,.51-.65,.91-1.16,1.19-.51,.28-1.1,.42-1.76,.42-.71,0-1.35-.15-1.91-.45Z"/>
          <path class="cls-8" d="M65.62,21.59c.53,.48,.8,1.21,.8,2.19v4.02h-1.51v-.83c-.2,.3-.48,.53-.84,.69-.36,.16-.8,.24-1.31,.24s-.96-.09-1.35-.26c-.38-.18-.68-.42-.89-.73-.21-.31-.31-.67-.31-1.06,0-.62,.23-1.11,.69-1.48,.46-.37,1.18-.56,2.16-.56h1.77v-.1c0-.48-.14-.85-.43-1.1s-.71-.38-1.28-.38c-.38,0-.76,.06-1.14,.18-.37,.12-.69,.29-.94,.5l-.63-1.17c.36-.27,.79-.48,1.3-.63,.5-.15,1.04-.22,1.6-.22,1.01,0,1.78,.24,2.32,.72Zm-1.46,4.85c.31-.18,.53-.45,.66-.79v-.8h-1.66c-.92,0-1.39,.3-1.39,.91,0,.29,.12,.52,.35,.69,.23,.17,.55,.26,.96,.26s.76-.09,1.07-.28Z"/>
          <path class="cls-8" d="M74.49,18.27v9.52h-1.54v-.89c-.27,.33-.59,.57-.98,.73-.39,.16-.82,.24-1.29,.24-.66,0-1.25-.15-1.78-.44-.53-.29-.94-.7-1.24-1.24-.3-.53-.45-1.15-.45-1.84s.15-1.3,.45-1.83c.3-.53,.71-.94,1.24-1.23,.53-.29,1.12-.44,1.78-.44,.45,0,.87,.08,1.24,.23,.38,.15,.7,.38,.96,.69v-3.52h1.6Zm-2.58,7.97c.31-.18,.55-.43,.73-.75,.18-.32,.27-.7,.27-1.13s-.09-.8-.27-1.13c-.18-.32-.42-.58-.73-.75-.31-.18-.65-.26-1.04-.26s-.73,.09-1.04,.26c-.31,.18-.55,.43-.73,.75-.18,.33-.27,.7-.27,1.13s.09,.8,.27,1.13c.18,.33,.42,.58,.73,.75,.31,.18,.65,.26,1.04,.26s.73-.09,1.04-.26Z"/>
          <path class="cls-8" d="M82.27,24.88h-5.38c.09,.5,.34,.9,.74,1.2,.4,.29,.89,.44,1.48,.44,.75,0,1.37-.25,1.86-.74l.86,.99c-.31,.37-.7,.65-1.17,.83-.47,.19-1,.28-1.59,.28-.75,0-1.42-.15-1.99-.45-.57-.3-1.02-.72-1.33-1.25-.31-.53-.47-1.14-.47-1.82s.15-1.27,.46-1.8c.3-.53,.72-.95,1.26-1.25,.54-.3,1.15-.45,1.82-.45s1.26,.15,1.79,.44c.53,.29,.94,.71,1.23,1.24,.3,.53,.44,1.15,.44,1.85,0,.11,0,.27-.03,.47Zm-4.74-2.28c-.35,.3-.57,.71-.65,1.21h3.89c-.07-.5-.28-.9-.63-1.21-.35-.31-.79-.46-1.31-.46s-.95,.15-1.3,.46Z"/>
          <path class="cls-8" d="M93.8,21.62c.5,.5,.76,1.25,.76,2.25v3.93h-1.6v-3.72c0-.6-.13-1.05-.4-1.35-.27-.3-.65-.46-1.14-.46-.54,0-.97,.18-1.3,.53-.33,.35-.49,.86-.49,1.52v3.48h-1.6v-3.72c0-.6-.13-1.05-.4-1.35-.27-.3-.65-.46-1.14-.46-.55,0-.98,.18-1.3,.53-.32,.35-.48,.86-.48,1.53v3.48h-1.6v-6.85h1.53v.87c.26-.31,.58-.54,.96-.71,.38-.16,.81-.24,1.28-.24,.51,0,.97,.1,1.37,.29,.4,.19,.71,.48,.94,.85,.28-.36,.65-.64,1.09-.84,.44-.2,.94-.3,1.48-.3,.86,0,1.55,.25,2.05,.75Z"/>
          <path class="cls-8" d="M102.24,20.94l-3.21,7.4c-.3,.74-.66,1.27-1.09,1.57-.43,.3-.95,.46-1.55,.46-.34,0-.68-.06-1.01-.17-.33-.11-.61-.27-.82-.46l.64-1.18c.15,.15,.34,.26,.55,.35,.21,.09,.42,.13,.63,.13,.28,0,.52-.07,.7-.22,.18-.15,.35-.39,.51-.73l.12-.27-2.99-6.88h1.67l2.15,5.07,2.17-5.07h1.54Z"/>
        </g>
      </g>
      <g>
        <g>
          <rect class="cls-1" x="179.1" y="21.43" width="1.96" height="5.16" transform="translate(35.77 134.36) rotate(-45)"/>
          <path class="cls-3" d="M177.97,27.72l-.07-1.96c-.05,0-.1,0-.15,0-2.26,0-4.1-1.84-4.1-4.1s1.84-4.1,4.1-4.1c2.26,0,4.1,1.84,4.1,4.1,0,.05,0,.1,0,.15l1.96,.07c0-.08,0-.15,0-.23,0-3.35-2.71-6.06-6.06-6.06s-6.06,2.71-6.06,6.06c0,3.35,2.71,6.06,6.06,6.06,.08,0,.15,0,.23,0Z"/>
        </g>
        <path class="cls-3" d="M184.81,25.69l1.22-1.45c1.12,.98,2.22,1.5,3.65,1.5,1.26,0,2.05-.6,2.05-1.45v-.03c0-.81-.46-1.29-2.61-1.77-2.46-.58-3.85-1.34-3.85-3.46v-.03c0-1.98,1.65-3.36,3.95-3.36,1.7,0,3.01,.51,4.2,1.45l-1.09,1.54c-1.06-.78-2.08-1.19-3.14-1.19-1.19,0-1.88,.6-1.88,1.37v.03c0,.89,.53,1.29,2.76,1.82,2.43,.63,3.7,1.45,3.7,3.39v.03c0,2.18-1.7,3.46-4.13,3.46-1.79,0-3.44-.6-4.83-1.85Z"/>
        <path class="cls-3" d="M194.78,25.69l1.22-1.45c1.12,.98,2.22,1.5,3.65,1.5,1.26,0,2.05-.6,2.05-1.45v-.03c0-.81-.46-1.29-2.61-1.77-2.46-.58-3.85-1.34-3.85-3.46v-.03c0-1.98,1.65-3.36,3.95-3.36,1.7,0,3.01,.51,4.2,1.45l-1.09,1.54c-1.06-.78-2.08-1.19-3.14-1.19-1.19,0-1.88,.6-1.88,1.37v.03c0,.89,.53,1.29,2.76,1.82,2.43,.63,3.7,1.45,3.7,3.39v.03c0,2.18-1.7,3.46-4.13,3.46-1.79,0-3.44-.6-4.83-1.85Z"/>
        <path class="cls-3" d="M212.86,15.73h1.88l5.09,11.66h-2.15l-1.17-2.79h-5.47l-1.19,2.79h-2.08l5.09-11.66Zm2.91,7.06l-2-4.63-1.98,4.63h3.98Z"/>
        <path class="cls-3" d="M220.6,18.65h2.02v1.34c.58-.81,1.36-1.52,2.73-1.52,1.98,0,3.11,1.31,3.11,3.34v5.57h-2v-4.96c0-1.37-.68-2.13-1.87-2.13s-1.97,.79-1.97,2.17v4.93h-2.02v-8.73Z"/>
        <path class="cls-3" d="M229.46,24.87v-.03c0-1.9,1.49-2.81,3.62-2.81,.99,0,1.67,.15,2.35,.36v-.21c0-1.26-.76-1.9-2.17-1.9-.99,0-1.7,.22-2.5,.55l-.55-1.57c.98-.41,1.92-.71,3.31-.71,1.31,0,2.27,.33,2.89,.98,.64,.64,.94,1.55,.94,2.69v5.17h-1.95v-1.09c-.6,.71-1.5,1.27-2.84,1.27-1.64,0-3.11-.93-3.11-2.69Zm6-.63v-.6c-.51-.2-1.19-.35-1.98-.35-1.31,0-2.05,.53-2.05,1.45v.03c0,.84,.73,1.32,1.7,1.32,1.32,0,2.33-.74,2.33-1.87Z"/>
        <path class="cls-3" d="M238.62,15.31h2.02v12.07h-2.02V15.31Z"/>
        <path class="cls-3" d="M248.52,18.65h2.08l-3.47,8.96c-.71,1.8-1.47,2.46-2.88,2.46-.84,0-1.45-.2-2.07-.55l.68-1.47c.38,.2,.76,.33,1.17,.33,.58,0,.91-.25,1.24-.99l-3.64-8.75h2.15l2.45,6.48,2.28-6.48Z"/>
        <path class="cls-3" d="M252.72,24.97v-4.6h-1.11v-1.72h1.11v-2.4h2v2.4h2.35v1.72h-2.35v4.28c0,.78,.4,1.09,1.07,1.09,.43,0,.84-.1,1.24-.3v1.64c-.51,.28-1.03,.45-1.8,.45-1.47,0-2.51-.64-2.51-2.56Z"/>
        <path class="cls-3" d="M258.08,15.41h2.02v1.9h-2.02v-1.9Zm0,3.24h2.02v8.73h-2.02v-8.73Z"/>
        <path class="cls-3" d="M261.11,23.07v-.03c0-2.48,1.92-4.56,4.55-4.56,1.64,0,2.65,.61,3.49,1.5l-1.26,1.34c-.61-.64-1.26-1.09-2.25-1.09-1.45,0-2.53,1.26-2.53,2.78v.03c0,1.55,1.07,2.79,2.61,2.79,.94,0,1.62-.43,2.26-1.07l1.21,1.19c-.86,.98-1.87,1.64-3.57,1.64-2.6,0-4.51-2.03-4.51-4.51Z"/>
        <path class="cls-3" d="M270.2,26.24l.89-1.36c.98,.71,1.95,1.07,2.86,1.07,.86,0,1.36-.36,1.36-.94v-.03c0-.66-.93-.91-1.95-1.22-1.27-.35-2.73-.89-2.73-2.55v-.03c0-1.67,1.37-2.68,3.11-2.68,1.11,0,2.28,.38,3.21,.99l-.79,1.42c-.84-.51-1.74-.83-2.46-.83-.78,0-1.22,.38-1.22,.86v.03c0,.63,.94,.93,1.97,1.24,1.26,.4,2.71,.98,2.71,2.55v.03c0,1.84-1.42,2.74-3.24,2.74-1.26,0-2.6-.43-3.7-1.31Z"/>
      </g>
      <g>
        <g>
          <path class="cls-6" d="M359.17,27.23V15.9h3.93c.9,0,1.7,.15,2.39,.45,.69,.3,1.26,.7,1.72,1.21,.46,.51,.8,1.11,1.03,1.8,.23,.69,.34,1.42,.34,2.19,0,.86-.13,1.64-.38,2.34-.26,.7-.62,1.29-1.1,1.79s-1.06,.88-1.73,1.15c-.68,.27-1.43,.41-2.26,.41h-3.93Zm7.95-5.68c0-.64-.09-1.23-.26-1.76-.18-.54-.44-1-.78-1.38-.35-.38-.77-.68-1.27-.9-.5-.22-1.07-.33-1.71-.33h-2.49v8.78h2.49c.65,0,1.23-.11,1.73-.34,.51-.22,.93-.53,1.26-.93,.34-.39,.59-.86,.77-1.4,.18-.54,.26-1.12,.26-1.75Z"/>
          <path class="cls-6" d="M372.08,27.39c-.39,0-.76-.07-1.1-.2-.34-.13-.64-.32-.89-.55-.25-.23-.45-.51-.59-.82-.14-.31-.22-.66-.22-1.03s.09-.73,.26-1.05c.17-.31,.41-.58,.73-.81s.69-.4,1.12-.53c.43-.13,.9-.19,1.41-.19,.4,0,.81,.04,1.23,.11,.41,.07,.78,.18,1.1,.3v-.67c0-.68-.19-1.22-.57-1.6-.38-.39-.93-.58-1.63-.58-.84,0-1.72,.32-2.65,.97l-.46-.91c1.07-.72,2.15-1.09,3.24-1.09s1.95,.29,2.56,.88c.61,.59,.92,1.41,.92,2.47v3.4c0,.33,.15,.5,.45,.51v1.21c-.15,.02-.27,.04-.37,.05-.1,.01-.2,.02-.3,.02-.28,0-.5-.08-.66-.25-.17-.16-.26-.36-.3-.6l-.03-.59c-.37,.5-.84,.88-1.41,1.14-.57,.26-1.18,.39-1.83,.39Zm.37-1.05c.5,0,.97-.09,1.4-.28,.43-.19,.76-.43,.98-.74,.2-.2,.3-.41,.3-.62v-1.23c-.68-.27-1.39-.4-2.12-.4s-1.27,.15-1.72,.45c-.44,.3-.66,.69-.66,1.17,0,.23,.05,.45,.14,.65,.09,.2,.22,.38,.38,.53,.16,.15,.36,.27,.58,.35s.46,.13,.72,.13Z"/>
          <path class="cls-6" d="M386.26,27.39c-.39,0-.76-.07-1.1-.2-.34-.13-.64-.32-.89-.55-.25-.23-.45-.51-.59-.82-.14-.31-.22-.66-.22-1.03s.09-.73,.26-1.05c.17-.31,.41-.58,.73-.81s.69-.4,1.12-.53c.43-.13,.9-.19,1.41-.19,.4,0,.81,.04,1.23,.11,.41,.07,.78,.18,1.1,.3v-.67c0-.68-.19-1.22-.57-1.6-.38-.39-.93-.58-1.63-.58-.84,0-1.72,.32-2.65,.97l-.46-.91c1.07-.72,2.15-1.09,3.24-1.09s1.95,.29,2.56,.88c.61,.59,.92,1.41,.92,2.47v3.4c0,.33,.15,.5,.45,.51v1.21c-.15,.02-.27,.04-.37,.05-.1,.01-.2,.02-.3,.02-.28,0-.5-.08-.66-.25-.17-.16-.26-.36-.3-.6l-.03-.59c-.37,.5-.84,.88-1.41,1.14-.57,.26-1.18,.39-1.83,.39Zm.37-1.05c.5,0,.97-.09,1.4-.28,.43-.19,.76-.43,.98-.74,.2-.2,.3-.41,.3-.62v-1.23c-.68-.27-1.39-.4-2.12-.4s-1.27,.15-1.72,.45c-.44,.3-.66,.69-.66,1.17,0,.23,.05,.45,.14,.65,.09,.2,.22,.38,.38,.53,.16,.15,.36,.27,.58,.35s.46,.13,.72,.13Z"/>
          <path class="cls-6" d="M382.75,26.82c-.09,.04-.2,.09-.34,.15-.14,.06-.3,.12-.47,.18-.18,.06-.37,.11-.57,.14-.21,.04-.42,.06-.65,.06-.51,0-.95-.14-1.32-.42-.37-.28-.56-.72-.56-1.32v-5.6h-1.13v-1.1h1.13v-2.78h1.4v2.78h1.87v1.1h-1.87v5.17c.02,.31,.12,.53,.3,.67,.18,.14,.39,.21,.64,.21,.28,0,.53-.05,.76-.14,.23-.09,.39-.16,.47-.22l.34,1.12Z"/>
          <path class="cls-6" d="M403.29,17.18h-3.91v10.06h-1.44v-10.06h-3.91v-1.28h9.26v1.28Z"/>
          <path class="cls-6" d="M405,27.39c-.39,0-.76-.07-1.1-.2-.34-.13-.64-.32-.89-.55-.25-.23-.45-.51-.59-.82-.14-.31-.22-.66-.22-1.03s.09-.73,.26-1.05c.17-.31,.41-.58,.73-.81,.31-.22,.69-.4,1.12-.53,.43-.13,.9-.19,1.41-.19,.4,0,.81,.04,1.23,.11,.41,.07,.78,.18,1.1,.3v-.67c0-.68-.19-1.22-.57-1.6-.38-.39-.93-.58-1.63-.58-.84,0-1.72,.32-2.65,.97l-.46-.91c1.07-.72,2.15-1.09,3.24-1.09s1.95,.29,2.56,.88c.61,.59,.92,1.41,.92,2.47v3.4c0,.33,.15,.5,.45,.51v1.21c-.15,.02-.27,.04-.37,.05-.1,.01-.2,.02-.3,.02-.28,0-.5-.08-.66-.25s-.26-.36-.3-.6l-.03-.59c-.37,.5-.84,.88-1.41,1.14-.57,.26-1.18,.39-1.83,.39Zm.37-1.05c.5,0,.97-.09,1.4-.28,.43-.19,.76-.43,.98-.74,.2-.2,.3-.41,.3-.62v-1.23c-.68-.27-1.39-.4-2.12-.4s-1.27,.15-1.72,.45c-.44,.3-.66,.69-.66,1.17,0,.23,.05,.45,.14,.65,.09,.2,.22,.38,.38,.53,.16,.15,.36,.27,.58,.35,.22,.09,.46,.13,.72,.13Z"/>
          <path class="cls-6" d="M411.34,15.58h1.4v9.5c0,.31,.08,.55,.25,.73,.16,.18,.4,.26,.69,.26,.12,0,.26-.02,.41-.06,.16-.04,.31-.08,.45-.14l.22,1.13c-.23,.1-.51,.18-.83,.24-.32,.06-.6,.1-.85,.1-.54,0-.97-.15-1.28-.46-.31-.31-.47-.74-.47-1.29V15.58Z"/>
          <path class="cls-6" d="M419.38,27.39c-.63,0-1.2-.11-1.72-.34-.52-.23-.97-.54-1.34-.93-.37-.39-.66-.85-.87-1.38-.21-.53-.31-1.08-.31-1.67s.1-1.14,.31-1.66c.21-.52,.5-.98,.88-1.37,.38-.39,.83-.7,1.35-.93,.52-.23,1.1-.34,1.72-.34s1.2,.12,1.72,.35c.52,.23,.95,.55,1.32,.93,.36,.39,.64,.84,.84,1.36s.3,1.05,.3,1.6c0,.12,0,.22,0,.32,0,.1-.01,.17-.02,.22h-6.91c.03,.42,.13,.79,.29,1.13,.16,.34,.37,.63,.62,.88,.26,.24,.55,.44,.87,.57,.32,.14,.67,.21,1.03,.21,.26,0,.51-.03,.75-.1,.24-.07,.47-.16,.69-.28,.21-.12,.4-.26,.57-.43,.16-.17,.29-.36,.38-.57l1.21,.34c-.14,.31-.33,.59-.57,.85-.24,.26-.52,.48-.83,.66-.31,.19-.66,.33-1.05,.44s-.78,.16-1.2,.16Zm2.86-4.88c-.03-.39-.13-.76-.3-1.09-.17-.34-.37-.62-.62-.85-.25-.23-.54-.42-.87-.55-.33-.13-.68-.2-1.05-.2s-.72,.07-1.05,.2c-.33,.13-.62,.32-.87,.56-.25,.24-.45,.52-.61,.85-.15,.33-.25,.69-.28,1.09h5.65Z"/>
          <path class="cls-6" d="M432.22,27.23h-1.4v-4.66c0-.89-.14-1.54-.41-1.95-.27-.4-.68-.61-1.24-.61-.29,0-.57,.06-.86,.17s-.56,.26-.81,.45c-.26,.19-.48,.42-.67,.69-.19,.27-.34,.56-.43,.88v5.03h-1.4v-8.33h1.28v1.79c.33-.58,.81-1.05,1.43-1.4s1.3-.53,2.03-.53c.48,0,.88,.09,1.2,.26,.32,.18,.57,.42,.77,.73s.33,.68,.41,1.11c.08,.43,.12,.89,.12,1.39v4.98Z"/>
          <path class="cls-6" d="M438.34,26.82c-.09,.04-.2,.09-.34,.15-.14,.06-.3,.12-.47,.18-.18,.06-.37,.11-.57,.14-.21,.04-.42,.06-.65,.06-.51,0-.95-.14-1.32-.42-.37-.28-.56-.72-.56-1.32v-5.6h-1.13v-1.1h1.13v-2.78h1.4v2.78h1.87v1.1h-1.87v5.17c.02,.31,.12,.53,.3,.67,.18,.14,.39,.21,.64,.21,.28,0,.53-.05,.76-.14,.23-.09,.39-.16,.47-.22l.34,1.12Z"/>
        </g>
        <path class="cls-7" d="M341.66,33.38h-2.09c-.39,0-.7-.31-.7-.7s.31-.7,.7-.7h2.09c1.89,0,3.73-.51,5.34-1.49,.33-.2,.76-.09,.96,.24,.2,.33,.09,.76-.24,.96-1.83,1.11-3.92,1.69-6.07,1.69m7.97-3.41c-.17,0-.35-.06-.48-.19-.28-.27-.29-.71-.02-.99,1.87-1.95,2.9-4.51,2.9-7.22,0-4.13-2.44-7.88-6.2-9.54-.35-.16-.51-.57-.36-.92,.16-.35,.57-.51,.92-.36,4.28,1.89,7.04,6.13,7.04,10.82,0,3.07-1.17,5.97-3.29,8.19-.14,.14-.32,.22-.51,.22m-6.31-18.69s-.07,0-.11,0c-.51-.08-1.03-.12-1.55-.12h-2.09c-.39,0-.7-.31-.7-.7s.31-.7,.7-.7h2.09c.59,0,1.18,.04,1.76,.13,.38,.06,.65,.41,.59,.8-.05,.35-.35,.6-.69,.6m-1.88,19.32h-11.07c-.39,0-.7-.31-.7-.7s.31-.7,.7-.7h11.07c.39,0,.7,.31,.7,.7s-.31,.7-.7,.7Zm2.91-.46c-.29,0-.56-.18-.66-.47-.13-.37,.07-.76,.43-.89,3.07-1.06,5.13-3.96,5.13-7.22,0-1.72-.56-3.34-1.61-4.69-.24-.3-.18-.74,.12-.98,.31-.24,.74-.18,.98,.12,1.25,1.6,1.91,3.52,1.91,5.55,0,3.85-2.44,7.28-6.07,8.54-.08,.03-.15,.04-.23,.04Zm1.64-14.97c-.13,0-.25-.03-.37-.1-1.2-.74-2.58-1.13-3.99-1.13h-5.57c-.39,0-.7-.31-.7-.7s.31-.7,.7-.7h5.57c1.67,0,3.31,.46,4.73,1.34,.33,.2,.43,.63,.23,.96-.13,.21-.36,.33-.6,.33Zm-4.54,9.87c2,0,3.63-1.56,3.63-3.48s-1.63-3.48-3.63-3.48h-6.81c-.39,0-.7,.31-.7,.7s.31,.7,.7,.7h6.81c1.23,0,2.23,.93,2.23,2.08s-1,2.08-2.23,2.08h-15.78c-.39,0-.7,.31-.7,.7s.31,.7,.7,.7h15.78m.16,2.78h-7.53c-.39,0-.7-.31-.7-.7s.31-.7,.7-.7h7.53c2.68,0,4.85-2.18,4.85-4.86s-2.18-4.86-4.85-4.86h-1.33c-.39,0-.7-.31-.7-.7s.31-.7,.7-.7h1.33c3.45,0,6.25,2.81,6.25,6.26s-2.81,6.26-6.25,6.26Zm-10.57,0h-2.7c-.39,0-.7-.31-.7-.7s.31-.7,.7-.7h2.7c.39,0,.7,.31,.7,.7s-.31,.7-.7,.7Zm6.2-11.11h-3.72c-.39,0-.7-.31-.7-.7s.31-.7,.7-.7h3.72c.39,0,.7,.31,.7,.7s-.31,.7-.7,.7Zm4.36,5.55c.39,0,.7-.31,.7-.7s-.31-.7-.7-.7h-12.07c-.39,0-.7,.31-.7,.7s.31,.7,.7,.7h12.07"/>
      </g>
    </g>
  </g>
</svg>